<?xml version="1.0" encoding="UTF-8" standalone="no"?>
<svg
   xmlns:dc="http://purl.org/dc/elements/1.1/"
   xmlns:cc="http://creativecommons.org/ns#"
   xmlns:rdf="http://www.w3.org/1999/02/22-rdf-syntax-ns#"
   xmlns:svg="http://www.w3.org/2000/svg"
   xmlns="http://www.w3.org/2000/svg"
   width="1024"
   height="2048"
   viewBox="0 0 1024 2048"
   version="1.1"
   id="svg8">
  <defs
     id="defs2" />
  <metadata
     id="metadata5">
    <rdf:RDF>
      <cc:Work
         rdf:about="">
        <dc:format>image/svg+xml</dc:format>
        <dc:type
           rdf:resource="http://purl.org/dc/dcmitype/StillImage" />
        <dc:title></dc:title>
        <cc:license
           rdf:resource="http://creativecommons.org/publicdomain/zero/1.0/" />
      </cc:Work>
      <cc:License
         rdf:about="http://creativecommons.org/publicdomain/zero/1.0/">
        <cc:permits
           rdf:resource="http://creativecommons.org/ns#Reproduction" />
        <cc:permits
           rdf:resource="http://creativecommons.org/ns#Distribution" />
        <cc:permits
           rdf:resource="http://creativecommons.org/ns#DerivativeWorks" />
      </cc:License>
    </rdf:RDF>
  </metadata>
  <g
     id="layer1"
     transform="translate(0,244.86668)" />
  <path
     style="fill:#000000;fill-opacity:1;stroke:none;stroke-width:250;stroke-linecap:butt;stroke-linejoin:round;stroke-miterlimit:4;stroke-dasharray:none;stroke-dashoffset:162;stroke-opacity:1"
     d="m 0,0 v 2048 h 64 v -64 h 64 v 64 h 64 v -64 h 64 v 64 h 64 v -64 h 64 v 64 h 64 v -64 h 64 v 64 h 64 v -64 h 64 v 64 h 64 v -64 h 64 v 64 h 64 v -64 h 64 v 64 h 64 v -64 h 64 v -64 h -64 v -64 h 64 v -64 h -64 v -64 h 64 v -64 h -64 v -64 h 64 v -64 h -64 v -64 h 64 v -64 h -64 v -64 h 64 v -64 h -64 v -64 h 64 v -64 h -64 v -64 h 64 v -64 h -64 v -64 h 64 v -64 h -64 v -64 h 64 v -64 h -64 v -64 h 64 v -64 h -64 v -64 h 64 v -64 h -64 v -64 h 64 v -64 h -64 v -64 h 64 v -64 h -64 v -64 h 64 V 128 H 960 V 64 h 64 V 0 Z m 64,64 h 64 v 64 H 64 Z m 128,0 h 64 v 64 h -64 z m 128,0 h 64 v 64 h -64 z m 128,0 h 64 v 64 h -64 z m 128,0 h 64 v 64 h -64 z m 128,0 h 64 v 64 h -64 z m 128,0 h 64 v 64 H 832 Z M 64,192 h 64 v 64 H 64 Z m 128,0 h 64 v 64 h -64 z m 128,0 h 64 v 64 h -64 z m 128,0 h 64 v 64 h -64 z m 128,0 h 64 v 64 h -64 z m 128,0 h 64 v 64 h -64 z m 128,0 h 64 v 64 H 832 Z M 64,320 h 64 v 64 H 64 Z m 128,0 h 64 v 64 h -64 z m 128,0 h 64 v 64 h -64 z m 128,0 h 64 v 64 h -64 z m 128,0 h 64 v 64 h -64 z m 128,0 h 64 v 64 h -64 z m 128,0 h 64 v 64 H 832 Z M 64,448 h 64 v 64 H 64 Z m 128,0 h 64 v 64 h -64 z m 128,0 h 64 v 64 h -64 z m 128,0 h 64 v 64 h -64 z m 128,0 h 64 v 64 h -64 z m 128,0 h 64 v 64 h -64 z m 128,0 h 64 v 64 H 832 Z M 64,576 h 64 v 64 H 64 Z m 128,0 h 64 v 64 h -64 z m 128,0 h 64 v 64 h -64 z m 128,0 h 64 v 64 h -64 z m 128,0 h 64 v 64 h -64 z m 128,0 h 64 v 64 h -64 z m 128,0 h 64 v 64 H 832 Z M 64,704 h 64 v 64 H 64 Z m 128,0 h 64 v 64 h -64 z m 128,0 h 64 v 64 h -64 z m 128,0 h 64 v 64 h -64 z m 128,0 h 64 v 64 h -64 z m 128,0 h 64 v 64 h -64 z m 128,0 h 64 v 64 H 832 Z M 64,832 h 64 v 64 H 64 Z m 128,0 h 64 v 64 h -64 z m 128,0 h 64 v 64 h -64 z m 128,0 h 64 v 64 h -64 z m 128,0 h 64 v 64 h -64 z m 128,0 h 64 v 64 h -64 z m 128,0 h 64 v 64 H 832 Z M 64,960 h 64 v 64 H 64 Z m 128,0 h 64 v 64 h -64 z m 128,0 h 64 v 64 h -64 z m 128,0 h 64 v 64 h -64 z m 128,0 h 64 v 64 h -64 z m 128,0 h 64 v 64 h -64 z m 128,0 h 64 v 64 H 832 Z M 64,1088 h 64 v 64 H 64 Z m 128,0 h 64 v 64 h -64 z m 128,0 h 64 v 64 h -64 z m 128,0 h 64 v 64 h -64 z m 128,0 h 64 v 64 h -64 z m 128,0 h 64 v 64 h -64 z m 128,0 h 64 v 64 H 832 Z M 64,1216 h 64 v 64 H 64 Z m 128,0 h 64 v 64 h -64 z m 128,0 h 64 v 64 h -64 z m 128,0 h 64 v 64 h -64 z m 128,0 h 64 v 64 h -64 z m 128,0 h 64 v 64 h -64 z m 128,0 h 64 v 64 H 832 Z M 64,1344 h 64 v 64 H 64 Z m 128,0 h 64 v 64 h -64 z m 128,0 h 64 v 64 h -64 z m 128,0 h 64 v 64 h -64 z m 128,0 h 64 v 64 h -64 z m 128,0 h 64 v 64 h -64 z m 128,0 h 64 v 64 H 832 Z M 64,1472 h 64 v 64 H 64 Z m 128,0 h 64 v 64 h -64 z m 128,0 h 64 v 64 h -64 z m 128,0 h 64 v 64 h -64 z m 128,0 h 64 v 64 h -64 z m 128,0 h 64 v 64 h -64 z m 128,0 h 64 v 64 H 832 Z M 64,1600 h 64 v 64 H 64 Z m 128,0 h 64 v 64 h -64 z m 128,0 h 64 v 64 h -64 z m 128,0 h 64 v 64 h -64 z m 128,0 h 64 v 64 h -64 z m 128,0 h 64 v 64 h -64 z m 128,0 h 64 v 64 H 832 Z M 64,1728 h 64 v 64 H 64 Z m 128,0 h 64 v 64 h -64 z m 128,0 h 64 v 64 h -64 z m 128,0 h 64 v 64 h -64 z m 128,0 h 64 v 64 h -64 z m 128,0 h 64 v 64 h -64 z m 128,0 h 64 v 64 H 832 Z M 64,1856 h 64 v 64 H 64 Z m 128,0 h 64 v 64 h -64 z m 128,0 h 64 v 64 h -64 z m 128,0 h 64 v 64 h -64 z m 128,0 h 64 v 64 h -64 z m 128,0 h 64 v 64 h -64 z m 128,0 h 64 v 64 h -64 z"
     id="rect8695" />
</svg>
