<?xml version="1.0" encoding="UTF-8" standalone="no"?>
<svg
   xmlns:dc="http://purl.org/dc/elements/1.1/"
   xmlns:cc="http://creativecommons.org/ns#"
   xmlns:rdf="http://www.w3.org/1999/02/22-rdf-syntax-ns#"
   xmlns:svg="http://www.w3.org/2000/svg"
   xmlns="http://www.w3.org/2000/svg"
   id="svg8"
   version="1.1"
   viewBox="0 0 2048 2048"
   height="2048"
   width="2048">
  <defs
     id="defs2" />
  <metadata
     id="metadata5">
    <rdf:RDF>
      <cc:Work
         rdf:about="">
        <dc:format>image/svg+xml</dc:format>
        <dc:type
           rdf:resource="http://purl.org/dc/dcmitype/StillImage" />
        <dc:title />
        <cc:license
           rdf:resource="http://creativecommons.org/publicdomain/zero/1.0/" />
      </cc:Work>
      <cc:License
         rdf:about="http://creativecommons.org/publicdomain/zero/1.0/">
        <cc:permits
           rdf:resource="http://creativecommons.org/ns#Reproduction" />
        <cc:permits
           rdf:resource="http://creativecommons.org/ns#Distribution" />
        <cc:permits
           rdf:resource="http://creativecommons.org/ns#DerivativeWorks" />
      </cc:License>
    </rdf:RDF>
  </metadata>
  <g
     transform="translate(0,244.86668)"
     id="layer1">
    <path
       id="path938"
       transform="translate(0,-244.86668)"
       d="M 540,240 C 374.31458,240 240,374.31458 240,540 v 31.35742 h 90 V 540 c 0,-115.9798 94.0202,-210 210,-210 h 31.35742 v -90 z m 936.6426,0 v 90 H 1508 c 115.9798,0 210,94.0202 210,210 v 31.35742 h 90 V 540 C 1808,374.31458 1673.6854,240 1508,240 Z M 240,1476.6426 V 1508 c 0,165.6854 134.31458,300 300,300 h 31.35742 v -90 H 540 c -115.9798,0 -210,-94.0202 -210,-210 v -31.3574 z m 1478,0 V 1508 c 0,115.9798 -94.0202,210 -210,210 h -31.3574 v 90 H 1508 c 165.6854,0 300,-134.3146 300,-300 v -31.3574 z"
       style="fill:#000000;fill-opacity:1;stroke:none;stroke-width:90;stroke-linecap:butt;stroke-miterlimit:4;stroke-dasharray:180, 180;stroke-dashoffset:162;stroke-opacity:1" />
  </g>
</svg>
