<?xml version="1.0" encoding="UTF-8" standalone="no"?>
<svg
   xmlns:dc="http://purl.org/dc/elements/1.1/"
   xmlns:cc="http://creativecommons.org/ns#"
   xmlns:rdf="http://www.w3.org/1999/02/22-rdf-syntax-ns#"
   xmlns:svg="http://www.w3.org/2000/svg"
   xmlns="http://www.w3.org/2000/svg"
   width="2048"
   height="2048"
   viewBox="0 0 2048 2048"
   version="1.1"
   id="svg8">
  <defs
     id="defs2">
    <clipPath
       clipPathUnits="userSpaceOnUse"
       id="clipPath6810">
      <path
         style="fill:none;stroke:#000000;stroke-width:1px;stroke-linecap:butt;stroke-linejoin:miter;stroke-opacity:1"
         d="m 351.79243,1111.238 1.88881,234.6029 234.51176,-1.8089 0.23971,-234.3669 z"
         id="path6812" />
    </clipPath>
  </defs>
  <metadata
     id="metadata5">
    <rdf:RDF>
      <cc:Work
         rdf:about="">
        <dc:format>image/svg+xml</dc:format>
        <dc:type
           rdf:resource="http://purl.org/dc/dcmitype/StillImage" />
        <dc:title></dc:title>
        <cc:license
           rdf:resource="http://creativecommons.org/publicdomain/zero/1.0/" />
      </cc:Work>
      <cc:License
         rdf:about="http://creativecommons.org/publicdomain/zero/1.0/">
        <cc:permits
           rdf:resource="http://creativecommons.org/ns#Reproduction" />
        <cc:permits
           rdf:resource="http://creativecommons.org/ns#Distribution" />
        <cc:permits
           rdf:resource="http://creativecommons.org/ns#DerivativeWorks" />
      </cc:License>
    </rdf:RDF>
  </metadata>
  <g
     id="layer1"
     transform="translate(0,244.86668)"
     style="display:inline" />
  <g
     id="layer2">
    <path
       style="color:#000000;font-style:normal;font-variant:normal;font-weight:normal;font-stretch:normal;font-size:medium;line-height:normal;font-family:sans-serif;font-variant-ligatures:normal;font-variant-position:normal;font-variant-caps:normal;font-variant-numeric:normal;font-variant-alternates:normal;font-feature-settings:normal;text-indent:0;text-align:start;text-decoration:none;text-decoration-line:none;text-decoration-style:solid;text-decoration-color:#000000;letter-spacing:normal;word-spacing:normal;text-transform:none;writing-mode:lr-tb;direction:ltr;text-orientation:mixed;dominant-baseline:auto;baseline-shift:baseline;text-anchor:start;white-space:normal;shape-padding:0;clip-rule:nonzero;display:inline;overflow:visible;visibility:visible;opacity:1;isolation:auto;mix-blend-mode:normal;color-interpolation:sRGB;color-interpolation-filters:linearRGB;solid-color:#000000;solid-opacity:1;vector-effect:none;fill:#000000;fill-opacity:1;fill-rule:nonzero;stroke:none;stroke-width:20;stroke-linecap:butt;stroke-linejoin:bevel;stroke-miterlimit:4;stroke-dasharray:none;stroke-dashoffset:0;stroke-opacity:1;color-rendering:auto;image-rendering:auto;shape-rendering:auto;text-rendering:auto;enable-background:accumulate"
       d="m 1067.5586,275.82812 c -49.8245,0 -93.64561,23.86507 -125.58594,53.41211 -20.03703,18.53565 -35.67928,39.03663 -45.24805,58.58399 -6.56934,-13.51852 -16.45901,-27.43303 -30.14258,-40.04883 -25.72006,-23.71303 -64.89762,-41.93832 -117.98633,-40.2793 -54.91221,1.71601 -99.1246,24.28347 -129.41797,50.57422 -15.14668,13.14538 -26.86699,27.21479 -34.90039,40.42188 -2.06312,3.39182 -3.88781,6.70298 -5.48242,9.94922 -3.86133,-6.39046 -8.75383,-12.78651 -16.42969,-18.47852 -16.44086,-12.19167 -42.80207,-19.11294 -94.3789,-19.89844 -62.67319,-0.95449 -106.30528,53.25921 -112.62305,107.69922 -3.15888,27.22001 2.99832,55.28295 21.50391,76.53321 18.50559,21.25025 48.89711,34.76953 90.96679,34.76953 H 1583.4375 c 49.8476,0 85.5912,-12.33956 109.2773,-32.33789 23.6862,-19.99834 34.5918,-47.32621 36.0215,-74.5293 1.4298,-27.20309 -6.1889,-54.48603 -19.3847,-76.69531 -13.1959,-22.20929 -32.1121,-39.74447 -54.7422,-45.50782 -37.2047,-9.47512 -67.6173,-5.77969 -91.2207,7.91016 -13.2768,7.70041 -24.135,18.38411 -33.2032,30.94141 -5.8142,-25.88587 -22.1305,-46.44803 -42.9707,-60.77539 -30.1562,-20.73207 -69.3651,-30.20965 -103.8164,-31.08204 -42.7147,-1.08164 -82.9464,2.52418 -116.9023,18.88086 -23.6074,11.37176 -43.6817,29.34967 -58.6836,55.00782 -14.4217,-55.05518 -69.5712,-105.05079 -140.2539,-105.05079 z m 0,20 c 76.7767,0 131.3477,70.85684 123.2187,124.71094 l 19.4454,4.4336 c 13.2293,-42.99529 35.5942,-66.94171 64.9531,-81.08399 29.3589,-14.14228 66.4891,-17.95023 107.7168,-16.90625 31.0613,0.78655 67.2794,9.89308 92.9922,27.57031 25.7128,17.67724 41.3083,42.13883 35.5136,79.01368 l 19.0606,5.51562 c 10.4624,-24.22864 24.3259,-43.0657 42.9629,-53.875 18.6369,-10.8093 42.668,-14.38259 76.25,-5.83008 15.5722,3.96586 31.2723,17.46808 42.4863,36.3418 11.214,18.87372 17.7991,42.72003 16.6055,65.42969 -1.1936,22.70966 -9.7401,44.07875 -28.9512,60.29883 -19.2111,16.22007 -49.8106,27.61914 -96.375,27.61914 H 467.83398 c -37.8854,0 -61.66117,-11.57113 -75.88476,-27.9043 -14.22359,-16.33317 -19.35856,-38.34465 -16.71875,-61.0918 5.27961,-45.49429 41.60371,-90.7822 92.45117,-90.00781 49.82994,0.75889 71.84762,7.86428 82.77148,15.96484 10.92387,8.10056 13.38474,19.23914 23.11329,34.15625 l 18.36914,-5.83203 c -0.15801,-4.26609 2.62125,-14.27482 9.42773,-25.46484 6.80649,-11.19002 17.27067,-23.8637 30.92383,-35.71289 27.30633,-23.69839 67.15571,-44.13194 116.93359,-45.6875 48.28034,-1.50876 81.6948,14.60955 103.80469,34.99414 22.1099,20.38459 32.48117,45.88681 33.4043,60.19531 l 19.92969,0.35156 c 1.85686,-18.56861 20.01937,-52.11945 49.19335,-79.10742 29.17399,-26.98797 68.61347,-48.0918 112.00587,-48.0918 z"
       id="path6815" />
    <path
       style="fill:#000000;fill-opacity:1;stroke:none;stroke-width:1px;stroke-linecap:butt;stroke-linejoin:miter;stroke-opacity:1"
       d="m 601.81568,636.97296 c -31.93073,44.16614 -53.67625,47.02876 -72.38338,71.5655 -18.44806,24.19692 -33.9425,61.34185 -4.90735,76.06389 31.49453,15.96905 70.44113,-14.17178 71.15655,-50.30032 0.8179,-41.30351 -6.54313,-46.6198 6.13418,-97.32907 z"
       id="path6817" />
    <path
       id="path6819"
       d="m 816.66454,622.41532 c -31.93073,44.16614 -53.67625,47.02876 -72.38338,71.5655 -18.44806,24.19692 -33.9425,61.34185 -4.90735,76.06389 31.49453,15.96905 70.44113,-14.17178 71.15655,-50.30032 0.8179,-41.30351 -6.54313,-46.6198 6.13418,-97.32907 z"
       style="fill:#000000;fill-opacity:1;stroke:none;stroke-width:1px;stroke-linecap:butt;stroke-linejoin:miter;stroke-opacity:1" />
    <path
       style="fill:#000000;fill-opacity:1;stroke:none;stroke-width:1px;stroke-linecap:butt;stroke-linejoin:miter;stroke-opacity:1"
       d="m 1070.6077,627.83583 c -31.9307,44.16614 -53.6762,47.02876 -72.3833,71.5655 -18.44806,24.19692 -33.9425,61.34185 -4.90735,76.06389 31.49445,15.96905 70.44105,-14.17178 71.15655,-50.30032 0.8179,-41.30351 -6.5432,-46.6198 6.1341,-97.32907 z"
       id="path6821" />
    <path
       id="path6823"
       d="m 1333.5719,617.50797 c -31.9307,44.16614 -53.6762,47.02876 -72.3834,71.5655 -18.448,24.19692 -33.9425,61.34185 -4.9073,76.06389 31.4945,15.96905 70.4411,-14.17178 71.1566,-50.30032 0.8179,-41.30351 -6.5432,-46.6198 6.1341,-97.32907 z"
       style="fill:#000000;fill-opacity:1;stroke:none;stroke-width:1px;stroke-linecap:butt;stroke-linejoin:miter;stroke-opacity:1" />
    <path
       style="fill:#000000;fill-opacity:1;stroke:none;stroke-width:1px;stroke-linecap:butt;stroke-linejoin:miter;stroke-opacity:1"
       d="m 1568.3989,631.6687 c -31.9307,44.16614 -53.6762,47.02876 -72.3834,71.5655 -18.448,24.19692 -33.9425,61.34185 -4.9073,76.06389 31.4945,15.96905 70.4411,-14.17178 71.1566,-50.30032 0.8179,-41.30351 -6.5432,-46.6198 6.1341,-97.32907 z"
       id="path6825" />
    <path
       id="path6827"
       d="m 1317.2141,821.98082 c -31.9307,44.16614 -53.6762,47.02876 -72.3834,71.5655 -18.448,24.19692 -33.9425,61.34185 -4.9073,76.06389 31.4945,15.96905 70.4411,-14.17178 71.1566,-50.30032 0.8179,-41.30351 -6.5432,-46.6198 6.1341,-97.32907 z"
       style="fill:#000000;fill-opacity:1;stroke:none;stroke-width:1px;stroke-linecap:butt;stroke-linejoin:miter;stroke-opacity:1" />
    <path
       style="fill:#000000;fill-opacity:1;stroke:none;stroke-width:1px;stroke-linecap:butt;stroke-linejoin:miter;stroke-opacity:1"
       d="m 825.8017,820.74195 c -31.9307,44.16614 -53.6762,47.02876 -72.3834,71.5655 -18.448,24.19692 -33.9425,61.34185 -4.9073,76.06389 31.4945,15.96905 70.4411,-14.17178 71.1566,-50.30032 0.8179,-41.30351 -6.5432,-46.6198 6.1341,-97.32907 z"
       id="path6829" />
    <path
       style="color:#000000;font-style:normal;font-variant:normal;font-weight:normal;font-stretch:normal;font-size:medium;line-height:normal;font-family:sans-serif;font-variant-ligatures:normal;font-variant-position:normal;font-variant-caps:normal;font-variant-numeric:normal;font-variant-alternates:normal;font-feature-settings:normal;text-indent:0;text-align:start;text-decoration:none;text-decoration-line:none;text-decoration-style:solid;text-decoration-color:#000000;letter-spacing:normal;word-spacing:normal;text-transform:none;writing-mode:lr-tb;direction:ltr;text-orientation:mixed;dominant-baseline:auto;baseline-shift:baseline;text-anchor:start;white-space:normal;shape-padding:0;clip-rule:nonzero;display:inline;overflow:visible;visibility:visible;opacity:1;isolation:auto;mix-blend-mode:normal;color-interpolation:sRGB;color-interpolation-filters:linearRGB;solid-color:#000000;solid-opacity:1;vector-effect:none;fill:#000000;fill-opacity:1;fill-rule:nonzero;stroke:none;stroke-width:20;stroke-linecap:butt;stroke-linejoin:bevel;stroke-miterlimit:60;stroke-dasharray:none;stroke-dashoffset:0;stroke-opacity:1;color-rendering:auto;image-rendering:auto;shape-rendering:auto;text-rendering:auto;enable-background:accumulate"
       d="m 924.91016,821.32031 -3.57227,19.33985 c 12.53435,4.79254 17.56567,9.45117 20.79297,15.4375 3.2273,5.98633 4.60431,14.76435 5.74414,27.30273 0.68207,7.50257 -6.44439,26.82201 -14.01367,45.7168 -3.78464,9.44739 -7.47574,19.04686 -9.70117,28.39648 -2.20967,9.28337 -3.27175,18.61917 0.27734,27.58203 4.86783,14.11778 17.50468,25.5919 34.55469,34.209 17.20879,8.6974 39.34562,14.291 64.44921,14.291 25.1036,0 47.2404,-5.5936 64.4492,-14.291 17.05,-8.6171 29.6869,-20.09121 34.5547,-34.209 3.5491,-8.96286 2.487,-18.29866 0.2774,-27.58203 -2.2255,-9.34962 -5.9166,-18.94909 -9.7012,-28.39648 -7.5693,-18.89479 -14.6958,-38.21424 -14.0137,-45.7168 1.1398,-12.53837 2.5168,-21.3164 5.7442,-27.30273 3.2273,-5.98634 8.2586,-10.64496 20.7929,-15.4375 l -3.5722,-19.33985 z m 31.19726,20 h 134.66798 c -1.293,1.71867 -2.6208,3.41875 -3.627,5.28516 -5.7042,10.58073 -6.8851,22.07399 -8.0586,34.98242 -1.6313,17.94425 7.9736,36.51536 15.3653,54.9668 3.6958,9.22571 7.0423,18.16122 8.8105,25.58984 1.7682,7.42862 1.6338,13.04468 0.5782,15.66016 l -0.2129,0.58008 c -2.1737,6.52099 -10.67,15.94635 -24.7618,23.06833 -14.0917,7.122 -33.3219,12.1426 -55.4277,12.1426 -22.1058,0 -41.33598,-5.0206 -55.42773,-12.1426 -14.09175,-7.12198 -22.58806,-16.54734 -24.76172,-23.06833 l -0.21289,-0.58008 c -1.05565,-2.61548 -1.19006,-8.23154 0.57813,-15.66016 1.76819,-7.42862 5.11471,-16.36413 8.81054,-25.58984 7.39168,-18.45144 16.99657,-37.02256 15.36524,-54.9668 -1.17347,-12.90842 -2.35439,-24.39973 -8.05859,-34.98047 -1.00628,-1.86654 -2.33382,-3.56832 -3.62696,-5.28711 z"
       id="path6831" />
    <path
       style="color:#000000;font-style:normal;font-variant:normal;font-weight:normal;font-stretch:normal;font-size:medium;line-height:normal;font-family:sans-serif;font-variant-ligatures:normal;font-variant-position:normal;font-variant-caps:normal;font-variant-numeric:normal;font-variant-alternates:normal;font-feature-settings:normal;text-indent:0;text-align:start;text-decoration:none;text-decoration-line:none;text-decoration-style:solid;text-decoration-color:#000000;letter-spacing:normal;word-spacing:normal;text-transform:none;writing-mode:lr-tb;direction:ltr;text-orientation:mixed;dominant-baseline:auto;baseline-shift:baseline;text-anchor:start;white-space:normal;shape-padding:0;clip-rule:nonzero;display:inline;overflow:visible;visibility:visible;opacity:1;isolation:auto;mix-blend-mode:normal;color-interpolation:sRGB;color-interpolation-filters:linearRGB;solid-color:#000000;solid-opacity:1;vector-effect:none;fill:#000000;fill-opacity:1;fill-rule:nonzero;stroke:none;stroke-width:20;stroke-linecap:butt;stroke-linejoin:bevel;stroke-miterlimit:60;stroke-dasharray:none;stroke-dashoffset:0;stroke-opacity:1;color-rendering:auto;image-rendering:auto;shape-rendering:auto;text-rendering:auto;enable-background:accumulate"
       d="m 460.34766,818.04883 -3.57032,19.33984 c 12.53435,4.79255 17.56372,9.45117 20.79102,15.4375 3.2273,5.98633 4.60431,14.76241 5.74414,27.30078 v 0.002 c 0.68207,7.50256 -6.44439,26.82201 -14.01367,45.71679 -3.78464,9.4474 -7.47574,19.04687 -9.70117,28.39649 -2.20967,9.28337 -3.27175,18.61917 0.27734,27.58203 4.86783,14.11778 17.50468,25.58988 34.55469,34.20698 17.20879,8.6974 39.34562,14.293 64.44922,14.293 25.1036,0 47.24042,-5.5956 64.44921,-14.293 17.05002,-8.6171 29.68687,-20.08919 34.55469,-34.20698 3.54909,-8.96286 2.48702,-18.29866 0.27735,-27.58203 -2.22544,-9.34962 -5.91653,-18.94909 -9.70118,-28.39649 -7.56929,-18.89478 -14.69573,-38.21423 -14.01367,-45.71679 v -0.002 c 1.13983,-12.53836 2.51682,-21.31444 5.74414,-27.30078 3.22732,-5.98633 8.25862,-10.64495 20.79297,-15.4375 l -3.57226,-19.33984 z m 31.19726,20 h 134.66797 c -1.29302,1.71866 -2.62074,3.41875 -3.62695,5.28515 -5.70423,10.58074 -6.88513,22.07399 -8.0586,34.98243 -1.63133,17.94424 7.97355,36.51536 15.36524,54.96679 3.69584,9.22572 7.04235,18.16122 8.81054,25.58985 1.7682,7.42862 1.63378,13.04468 0.57813,15.66015 l -0.21289,0.58008 c -2.17365,6.52099 -10.66997,15.94636 -24.76172,23.06836 -14.09175,7.12196 -33.32194,12.14256 -55.42773,12.14256 -22.1058,0 -41.33599,-5.0206 -55.42774,-12.14256 -14.09175,-7.122 -22.58806,-16.54736 -24.76172,-23.06836 l -0.21289,-0.58008 c -1.05565,-2.61548 -1.19006,-8.23153 0.57813,-15.66015 1.76819,-7.42863 5.11471,-16.36413 8.81054,-25.58985 7.39168,-18.45143 16.99657,-37.02255 15.36524,-54.96679 -1.17347,-12.90843 -2.35439,-24.40169 -8.05859,-34.98243 -1.00621,-1.8664 -2.33394,-3.56648 -3.62696,-5.28515 z"
       id="path6836" />
    <path
       style="color:#000000;font-style:normal;font-variant:normal;font-weight:normal;font-stretch:normal;font-size:medium;line-height:normal;font-family:sans-serif;font-variant-ligatures:normal;font-variant-position:normal;font-variant-caps:normal;font-variant-numeric:normal;font-variant-alternates:normal;font-feature-settings:normal;text-indent:0;text-align:start;text-decoration:none;text-decoration-line:none;text-decoration-style:solid;text-decoration-color:#000000;letter-spacing:normal;word-spacing:normal;text-transform:none;writing-mode:lr-tb;direction:ltr;text-orientation:mixed;dominant-baseline:auto;baseline-shift:baseline;text-anchor:start;white-space:normal;shape-padding:0;clip-rule:nonzero;display:inline;overflow:visible;visibility:visible;opacity:1;isolation:auto;mix-blend-mode:normal;color-interpolation:sRGB;color-interpolation-filters:linearRGB;solid-color:#000000;solid-opacity:1;vector-effect:none;fill:#000000;fill-opacity:1;fill-rule:nonzero;stroke:none;stroke-width:20;stroke-linecap:butt;stroke-linejoin:bevel;stroke-miterlimit:60;stroke-dasharray:none;stroke-dashoffset:0;stroke-opacity:1;color-rendering:auto;image-rendering:auto;shape-rendering:auto;text-rendering:auto;enable-background:accumulate"
       d="m 1413.8379,820.99609 -3.5703,19.3418 c 12.5343,4.79255 17.5637,9.44922 20.791,15.43555 3.2273,5.98633 4.6043,14.76435 5.7441,27.30273 0.6821,7.50257 -6.4424,26.82201 -14.0117,45.7168 -3.7846,9.44739 -7.4777,19.04882 -9.7031,28.39844 -2.2092,9.28152 -3.2692,18.61494 0.2773,27.57617 4.867,14.11939 17.5033,25.59502 34.5547,34.21292 17.2088,8.6973 39.3456,14.291 64.4492,14.291 25.1036,0 47.2405,-5.5937 64.4493,-14.291 17.0457,-8.615 29.6803,-20.0863 34.5507,-34.19925 3.5531,-8.96538 2.4916,-18.30363 0.2813,-27.58984 -2.2254,-9.34962 -5.9165,-18.95105 -9.7012,-28.39844 -7.5693,-18.89479 -14.6957,-38.21423 -14.0137,-45.7168 1.1399,-12.53836 2.5188,-21.3164 5.7461,-27.30273 3.2274,-5.98634 8.2567,-10.643 20.7911,-15.43555 l -3.5723,-19.3418 z m 31.1953,20 h 134.6738 c -1.2937,1.71941 -2.6241,3.41982 -3.6308,5.28711 -5.7043,10.58074 -6.8852,22.07399 -8.0586,34.98242 -1.6314,17.94425 7.9735,36.51342 15.3652,54.96485 3.6959,9.22572 7.0424,18.16317 8.8106,25.5918 1.7682,7.42862 1.6337,13.04272 0.5781,15.6582 l -0.2129,0.58008 c -2.1737,6.52097 -10.668,15.9483 -24.7598,23.07035 -14.0917,7.122 -33.3239,12.1406 -55.4297,12.1406 -22.1058,0 -41.3359,-5.0186 -55.4277,-12.1406 -14.0917,-7.12205 -22.5861,-16.54938 -24.7598,-23.07035 l -0.2148,-0.58008 c -1.0557,-2.61548 -1.1901,-8.22958 0.5781,-15.6582 1.7682,-7.42863 5.1147,-16.36608 8.8106,-25.5918 7.3917,-18.45143 16.9965,-37.0206 15.3652,-54.96485 -1.1735,-12.90842 -2.3524,-24.40168 -8.0566,-34.98242 -1.0067,-1.86729 -2.3371,-3.56769 -3.6309,-5.28711 z"
       id="path6838" />
    <path
       style="fill:#000000;fill-opacity:1;stroke:none;stroke-width:20.77581596;stroke-linecap:butt;stroke-linejoin:bevel;stroke-miterlimit:4;stroke-dasharray:none;stroke-opacity:1"
       d="m 678.39648,1037.0684 -38.75781,66.2148 -13.66601,-6.0684 c 0,0 -9.98322,50.8934 -47.42774,75.1836 -32.97369,21.3899 -73.68069,53.5406 -95.71875,80.6602 -5.4e-4,-0 -0.001,-0.01 -0.002,-0.01 l -26.59961,-56.3613 52.42383,-41.6407 6.24023,-38.1699 -76.13672,52.0488 -19.9707,-67.0859 -32.45313,8.0957 82.19532,164.4473 c -13.54972,24.0201 -17.91694,43.6175 -22.28321,58.791 2.4963,32.3869 39.94141,25.4466 39.94141,48.5801 0,23.1335 -59.91252,113.3551 -54.91992,141.1152 4.99259,27.7602 77.38672,71.7129 77.38672,71.7129 0,0 -10e-4,-23.1341 12.48047,-46.2676 12.4815,-23.1334 64.90563,-90.2192 72.39453,-115.666 7.4889,-25.4468 24.96094,-50.8945 24.96094,-50.8945 0,0 9.98612,108.7284 12.48242,141.1152 2.4963,32.3869 -29.95508,62.459 -29.95508,62.459 0,0 59.09689,37.0266 76.13672,3.4707 15.50428,-30.532 1.67341,-129.3778 7.55859,-194.7988 19.75198,-13.5813 43.21471,-31.8407 65.14453,-42.002 21.93272,-10.1626 45.1321,-15.0482 73.16797,-7.625 29.6078,7.8394 50.30764,18.1035 62.45508,30.5977 12.14744,12.4942 17.00417,27.0432 14.74609,48.4921 -2.28224,21.6786 -14.12175,67.7448 -23.55664,113.502 -2.74189,13.2976 -5.36474,26.5096 -7.5039,39.2949 l -127.35938,107.8164 -117.04883,-10.6172 v -45.1113 l -44.93359,-5.7832 18.60742,21.5059 -4.5664,23.3164 -62.71876,-8.9649 48.36524,31.8086 -18.75,17.5352 -45.5293,-4.8125 47.42969,30.3633 47.11719,-30.9414 139.15039,18.4355 c 0,0 84.41591,-68.12 115.26758,-95.3711 -0.0223,11.649 1.14847,22.2207 4.0039,31.2617 7.31116,23.149 12.72568,48.5608 34.23828,69.1504 21.51261,20.5896 57.27306,34.5605 122.10161,39.8613 63.3543,5.1805 105.1995,11.8139 145.9609,-0.6367 40.7614,-12.4505 77.352,-43.614 130.1055,-109.6465 23.716,-29.6858 45.887,-63.6989 66.9902,-98.4531 l 144.5684,-0.5644 -49.9258,98.3164 -45.8789,-0.9239 -5.6875,68.5254 30.4101,-39.7246 23.627,-2.7109 4.3105,57.5664 38.2149,-55.041 28.707,14.6972 9.7324,35.8575 25.0274,-51.6993 -57.2891,-25.3886 58.6641,-106.4141 -27.461,-42.7969 c 0,0 -114.591,13.3751 -155.7343,14.5391 18.5155,-31.5933 36.2905,-62.8007 53.6425,-90.9434 21.5177,-34.8986 42.4434,-65.0537 62.5274,-85.0351 17.1134,-17.0261 32.7404,-26.1203 47.7695,-26.8809 5.5993,12.9846 22.0798,37.988 36.3379,51.2012 28.2424,26.1725 75.9014,51.1179 86.9336,42.1211 11.0322,-8.9968 -5.7363,-33.9414 -5.7363,-33.9414 0,0 27.8019,5.3157 39.7168,-6.1348 11.9147,-11.4505 -34.4219,-33.9414 -34.4219,-33.9414 0,0 22.9484,-3.2718 34.4219,-19.2207 11.4734,-15.9489 -37.0684,-21.2656 -37.0684,-21.2656 0,0 26.0354,-13.9041 26.918,-23.7188 0.8826,-9.8147 -65.752,-5.7255 -94.877,1.2266 -19.0337,4.5433 -36.5857,13.6274 -46.5,19.3926 -14.1798,-12.7372 -36.7444,-18.3881 -59.0058,-20.4707 l 20.3125,-39.5703 -13.3028,-14.3047 -45.8613,19.4785 3.6602,-20.3477 -16.7852,-9.8925 -40.5352,33.0312 -12.207,-28.2773 -18.5703,-1.0118 -20.9043,36.8067 -24.2188,-16.5371 -15.8476,11.4316 7.8008,27.3086 -16.5371,-11.6602 -16.1348,10.7071 10.7285,49.0859 -17.0742,-3.4199 -12.3926,11.0449 4.1289,49.7442 -26.832,-5.9454 -12.4024,12.3321 8.1622,37.8183 -25.6231,2.8282 -8.8203,13.2812 12.4609,41.9941 -22.4297,-11.6406 -15.166,8.8301 -1.5507,41.2051 -7.1387,-9.4512 -17.0742,0.7149 -15.7325,24.9277 -2.7129,-7.9961 -11.4472,-6.9258 -7.5508,1.1836 13.9746,-14.5723 -4.6699,-17.1855 -21.5742,-6.1016 26.2246,-15.0722 0.2773,-17.8477 -24.7929,-15.2988 30.3867,-11.2422 4.623,-16.084 -20.291,-26.3242 27.4316,-22.2422 -4.041,-18.1523 -28.5273,-7.0801 29.7109,-22.8594 -2.6855,-17.959 -18.793,-7.0488 18.5274,-13.207 -0.5704,-17.2969 -16.9238,-10.4551 11.9063,-16.2891 -4.8125,-15.8847 -24.6172,-9.0196 20.4336,-26.3945 -6.9532,-16.6699 -36.1386,-4.4219 3.6621,-23.7617 -14.1016,-11.2363 -19.373,7.6933 5.1601,-26.3007 -14.9746,-11.2227 -36.9043,19.1289 v -31.1719 l -14.35545,-9.5996 -46.19141,19.0977 -5.94531,-24.2403 -16.38086,-5.791 -38.75976,29.5059 -8.91993,-21.1836 -18.75,-0.8359 -15.57031,29.3554 -13.41211,-30.3242 -18.39062,-1.1699 -23.45703,38.832 -25.61524,-33.2578 -17.92969,2.6211 -37.56836,97.9668 c -34.59514,12.1135 -56.33789,23.4434 -56.33789,23.4434 l 29.95899,-69.4004 -15.59375,-6.9239 38.05859,-68.2597 z m 252.21875,47.3242 5.05274,20.5996 14.05859,7.125 43.00977,-17.7832 v 32.7207 l 15.16797,9.2226 32.9531,-17.08 -4.6797,23.8515 14.0274,11.6543 20.2011,-8.0234 -2.5292,16.4141 9.0039,11.8945 28.6386,3.5039 -17.9394,23.1738 4.6406,16.1133 24.9961,9.1582 -10.3906,14.2168 2.9258,14.9668 13.1738,8.1387 -21.6875,15.4609 2.3808,18.1836 19.5704,7.3418 -31.9629,24.5918 3.83,18.3144 29.1934,7.2461 -19.1113,15.4981 -1.6856,14.4101 17.8574,23.168 -37.1269,13.7363 -1.8496,18.5821 28.0859,17.33 -32.4883,18.6739 2.3496,19.0019 28.668,8.1074 -23.3183,24.3165 9.1074,17.4531 29.3301,-4.6016 6.9004,20.3457 18.621,2.2071 19.3418,-30.6426 15.6582,20.7265 18.668,-5.8691 2.0313,-53.959 29.58,15.3496 14.7442,-12.1758 -15.8809,-53.5136 24.7129,-2.7266 9.0156,-12.5156 -7.1738,-33.2344 24.7793,5.4902 12.5996,-11 -4.1523,-50.039 19.1191,3.8301 12.1895,-12.4024 -8.4161,-38.5058 18.7579,13.2265 15.9746,-11.3437 -7.9903,-27.9727 9.7969,6.6895 14.8906,-3.4493 16.1739,-28.4785 9.3847,21.7403 16.0977,3.9355 29.4375,-23.9863 -2.0938,11.6426 14.2852,11.3984 37.1445,-15.7773 -11.7793,22.9511 c -55.7231,3.048 -126.5844,38.5869 -165.2793,114.5235 -42.4371,83.2804 -101.5922,200.9054 -170.9961,210.5156 -49.6678,6.8774 -91.115,-82.1242 -92.3632,-127.2344 -1.2482,-45.1103 48.6769,-121.451 34.9472,-196.6348 -13.7296,-75.1837 -81.1268,-128.3908 -199.70115,-133.0175 -53.55204,-2.0896 -105.02804,8.3302 -145.42383,20.3808 l 24.9336,-65.0156 23.58398,30.6211 17.12109,-0.9668 20.99024,-34.748 13.99219,31.6367 18.67773,0.666 15.33789,-28.9199 5.62695,13.3632 15.86524,4.2325 z m -335.0332,157.2109 c 25.57947,0.4953 28.98618,33.5134 11.66992,61.4981 -16.33297,26.3956 -33.70117,33.5449 -33.70117,33.5449 0,0 19.96988,-33.5431 6.24024,-43.9531 -13.72966,-10.4101 -42.43731,-1.1577 -44.9336,34.6992 -21.21856,-13.8801 1.24938,-49.7365 8.73828,-60.1465 21.74512,-18.073 38.61518,-25.3882 50.75196,-25.6406 0.4172,-0.01 0.82835,-0.01 1.23437,0 z m 235.43945,34.4356 c 8.48353,-0.063 17.12233,0.4608 25.85938,1.6171 69.89641,9.2539 111.08398,39.3265 111.08398,113.3536 0,74.0271 -27.4566,179.3662 -8.73437,244.6777 16.47484,57.4712 33.69975,74.5631 121.07033,67.623 143.5373,-2.3133 212.1849,-129.5463 242.1406,-189.6933 29.9555,-60.147 99.8514,-159.6215 149.7774,-185.0684 13.0476,-6.6504 24.148,-10.2016 33.9511,-11.9492 -5.3705,4.1258 -10.6322,8.7913 -15.7773,13.9102 -22.3265,22.2125 -43.7062,53.4198 -65.5586,88.8613 -43.7048,70.883 -89.1538,158.8669 -140.4649,223.0937 -51.8168,64.8601 -85.1211,92.1084 -119.9414,102.7442 -34.8202,10.6358 -74.2423,5.0285 -138.1992,-0.2012 -62.48292,-5.1091 -92.8737,-18.3188 -109.42967,-34.164 -16.55597,-15.8463 -21.12632,-36.1239 -28.79297,-60.3985 -5.79304,-18.3423 -0.2815,-64.2415 9.00586,-109.2832 9.28736,-45.0417 21.16074,-89.7764 23.87109,-115.5215 2.73453,-25.9746 -4.26569,-48.4386 -20.51367,-65.1504 -16.24798,-16.7118 -40.48163,-27.8452 -72.0332,-36.1992 -33.12348,-8.7702 -62.34585,-2.6675 -87.21875,8.8574 -19.28891,8.9377 -36.25906,20.9489 -51.74805,31.9707 1.7031,-6.4808 3.83379,-12.1892 6.5,-16.9062 24.0269,-42.5078 75.76763,-71.7311 135.15234,-72.1738 z"
       id="path6840" />
  </g>
</svg>
