<?xml version="1.0" encoding="UTF-8" standalone="no"?>
<svg
   xmlns:dc="http://purl.org/dc/elements/1.1/"
   xmlns:cc="http://creativecommons.org/ns#"
   xmlns:rdf="http://www.w3.org/1999/02/22-rdf-syntax-ns#"
   xmlns:svg="http://www.w3.org/2000/svg"
   xmlns="http://www.w3.org/2000/svg"
   id="svg8"
   version="1.1"
   viewBox="0 0 1024 2048"
   height="2048"
   width="1024">
  <defs
     id="defs2" />
  <metadata
     id="metadata5">
    <rdf:RDF>
      <cc:Work
         rdf:about="">
        <dc:format>image/svg+xml</dc:format>
        <dc:type
           rdf:resource="http://purl.org/dc/dcmitype/StillImage" />
        <dc:title></dc:title>
        <cc:license
           rdf:resource="http://creativecommons.org/publicdomain/zero/1.0/" />
      </cc:Work>
      <cc:License
         rdf:about="http://creativecommons.org/publicdomain/zero/1.0/">
        <cc:permits
           rdf:resource="http://creativecommons.org/ns#Reproduction" />
        <cc:permits
           rdf:resource="http://creativecommons.org/ns#Distribution" />
        <cc:permits
           rdf:resource="http://creativecommons.org/ns#DerivativeWorks" />
      </cc:License>
    </rdf:RDF>
  </metadata>
  <g
     transform="translate(0,244.86668)"
     id="layer1">
    <path
       id="path5278"
       transform="translate(0,-244.86668)"
       d="M 512 240 C 370.22646 240 254.22461 356.0038 254.22461 497.77734 L 254.22461 903.70508 L 218.20508 903.70508 C 166.94132 903.70508 125.67188 944.97647 125.67188 996.24023 L 125.67188 1715.4668 C 125.67188 1766.7306 166.94132 1808 218.20508 1808 L 805.79492 1808 C 857.05868 1808 898.32812 1766.7306 898.32812 1715.4668 L 898.32812 996.24023 C 898.32812 944.97647 857.05868 903.70508 805.79492 903.70508 L 769.77539 903.70508 L 769.77539 497.77734 C 769.77539 356.0038 653.77354 240 512 240 z M 512 340 C 599.72953 340 669.77539 410.04781 669.77539 497.77734 L 669.77539 903.70508 L 354.22461 903.70508 L 354.22461 497.77734 C 354.22461 410.04781 424.27047 340 512 340 z M 512 1094 A 121.795 121.795 0 0 1 633.79492 1215.7949 A 121.795 121.795 0 0 1 564.30469 1325.6562 L 564.30469 1638 L 459.69531 1638 L 459.69531 1325.6211 A 121.795 121.795 0 0 1 390.20508 1215.7949 A 121.795 121.795 0 0 1 512 1094 z "
       style="color:#000000;font-style:normal;font-variant:normal;font-weight:normal;font-stretch:normal;font-size:medium;line-height:normal;font-family:sans-serif;font-variant-ligatures:normal;font-variant-position:normal;font-variant-caps:normal;font-variant-numeric:normal;font-variant-alternates:normal;font-feature-settings:normal;text-indent:0;text-align:start;text-decoration:none;text-decoration-line:none;text-decoration-style:solid;text-decoration-color:#000000;letter-spacing:normal;word-spacing:normal;text-transform:none;writing-mode:lr-tb;direction:ltr;text-orientation:mixed;dominant-baseline:auto;baseline-shift:baseline;text-anchor:start;white-space:normal;shape-padding:0;clip-rule:nonzero;display:inline;overflow:visible;visibility:visible;opacity:1;isolation:auto;mix-blend-mode:normal;color-interpolation:sRGB;color-interpolation-filters:linearRGB;solid-color:#000000;solid-opacity:1;vector-effect:none;fill:#000000;fill-opacity:1;fill-rule:nonzero;stroke:none;stroke-width:100;stroke-linecap:butt;stroke-linejoin:round;stroke-miterlimit:4;stroke-dasharray:none;stroke-dashoffset:162;stroke-opacity:1;color-rendering:auto;image-rendering:auto;shape-rendering:auto;text-rendering:auto;enable-background:accumulate" />
  </g>
</svg>
